# xmcd CD database file
#
# Track frame offsets:
#	150
#	14992
#	28977
#	44987
#	57462
#	79152
#	91720
#	106605
#	121207
#	145145
#	156452
#	169330
#	180295
#	196665
#	212437
#	223955
#	236457
#	251207
#	268505
#	283752
#	300207
#	311400
#	325835
#	342505
#
# Disc length: 4761 seconds
#
# Revision: 11
# Processed by: cddbd v1.5.2PL0 Copyright (c) Steve Scherf et al.
# Submitted via: CDex 1.70beta2
#
DISCID=61129718
DTITLE=Various Artist - Have A Nice Decade [Disc2]
DYEAR=1998
DGENRE=Pop
TTITLE0=Isaac Hayes - Theme From Shaft
TTITLE1=Sly and The Family Stone - Family Affair
TTITLE2=Dramatics - Whatcha See Is Whatcha Get
TTITLE3=Cornelius Brothers and Sister Rose - Treat Her Like A Lady
TTITLE4=Chi-Lites - Have You Seen Her
TTITLE5=The Honey Cone - Want Ads
TTITLE6=Al Green - Let's Stay Together
TTITLE7=Lee Michaels - Do You Know What I Mean
TTITLE8=Rod Stewart - Maggie May
TTITLE9=Jean Knight - Mr. Big Stuff
TTITLE10=Daddy Dewdrop - Chick-A-Boom (Don't Ya Jes' Love It)
TTITLE11=Melanie - Brand New Key
TTITLE12=Coven - One Tin Soldier (The Legend Of Billy Jack)
TTITLE13=Alice Cooper - School's Out
TTITLE14=Hot Butter - Popcorn
TTITLE15=Apollo 100 - Joy
TTITLE16=Helen Reddy - I Am Woman
TTITLE17=America - A Horse With No Name
TTITLE18=The Staple Singers - I'll Take You There
TTITLE19=The Main Ingredient - Everybody Plays The Fool
TTITLE20=Joe Tex - I Gotcha
TTITLE21=Spinners - I'll Be Around
TTITLE22=Bill Withers - Lean OnMme
TTITLE23=Godspell - Day By Day
EXTD=YEAR: 1998
EXTT0=
EXTT1=
EXTT2=
EXTT3=
EXTT4=
EXTT5=
EXTT6=
EXTT7=
EXTT8=
EXTT9=
EXTT10=
EXTT11=
EXTT12=
EXTT13=
EXTT14=
EXTT15=
EXTT16=
EXTT17=
EXTT18=
EXTT19=
EXTT20=
EXTT21=
EXTT22=
EXTT23=
PLAYORDER=
